<?xml version="1.0" encoding="utf-8"?>
<!-- Generator: Adobe Illustrator 16.0.0, SVG Export Plug-In . SVG Version: 6.00 Build 0)  -->
<!DOCTYPE svg PUBLIC "-//W3C//DTD SVG 1.1//EN" "http://www.w3.org/Graphics/SVG/1.1/DTD/svg11.dtd">
<svg version="1.1" id="Capa_1" xmlns="http://www.w3.org/2000/svg" xmlns:xlink="http://www.w3.org/1999/xlink" x="0px" y="0px"
	 width="7.591px" height="7.593px" viewBox="0 0 7.591 7.593" enable-background="new 0 0 7.591 7.593" xml:space="preserve">
<polygon opacity="0.1" fill="#1D1D1B" points="0.194,1.642 0.001,1.642 0.001,0 1.848,0 1.848,0.194 0.194,0.194 "/>
<polygon opacity="0.1" fill="#1D1D1B" points="7.591,1.642 7.397,1.642 7.397,0.194 5.744,0.194 5.744,0 7.591,0 "/>
<polygon opacity="0.1" fill="#1D1D1B" points="7.591,7.593 5.744,7.593 5.744,7.399 7.397,7.399 7.397,5.951 7.591,5.951 "/>
<polygon opacity="0.1" fill="#1D1D1B" points="1.848,7.593 0.001,7.593 0.001,5.951 0.194,5.951 0.194,7.399 1.848,7.399 "/>
<circle opacity="0.1" fill="#1D1D1B" cx="1.16" cy="6.382" r="0.316"/>
<circle opacity="0.1" fill="#1D1D1B" cx="3.748" cy="3.757" r="0.316"/>
<circle opacity="0.1" fill="#1D1D1B" cx="6.309" cy="1.154" r="0.316"/>
</svg>
