<?xml version="1.0" encoding="utf-8"?>
<!-- Generator: Adobe Illustrator 16.0.0, SVG Export Plug-In . SVG Version: 6.00 Build 0)  -->
<!DOCTYPE svg PUBLIC "-//W3C//DTD SVG 1.1//EN" "http://www.w3.org/Graphics/SVG/1.1/DTD/svg11.dtd">
<svg version="1.1" id="Capa_1" xmlns="http://www.w3.org/2000/svg" xmlns:xlink="http://www.w3.org/1999/xlink" x="0px" y="0px"
	 width="10.262px" height="10.266px" viewBox="0 0 10.262 10.266" enable-background="new 0 0 10.262 10.266" xml:space="preserve">
<g opacity="0.04">
	<polygon fill="#1D1D1B" enable-background="new    " points="3.935,8.91 2.087,8.91 2.087,7.267 2.235,7.267 2.235,8.764 
		3.923,8.764 	"/>
	<polygon fill="#1D1D1B" enable-background="new    " points="9.661,7.055 9.661,8.903 8.018,8.903 8.018,8.754 9.514,8.754 
		9.514,7.067 	"/>
	<polygon fill="#1D1D1B" enable-background="new    " points="7.813,1.305 9.661,1.305 9.661,2.948 9.512,2.948 9.512,1.451 
		7.825,1.451 	"/>
	<polygon fill="#1D1D1B" enable-background="new    " points="2.087,3.16 2.087,1.312 3.729,1.312 3.729,1.46 2.232,1.46 
		2.232,3.148 	"/>
	<circle fill="#1D1D1B" enable-background="new    " cx="3.247" cy="7.699" r="0.38"/>
	<circle fill="#1D1D1B" enable-background="new    " cx="5.825" cy="5.074" r="0.38"/>
	<circle fill="#1D1D1B" enable-background="new    " cx="8.387" cy="2.464" r="0.38"/>
</g>
</svg>
