<?xml version="1.0" encoding="utf-8"?>
<!-- Generator: Adobe Illustrator 16.0.0, SVG Export Plug-In . SVG Version: 6.00 Build 0)  -->
<!DOCTYPE svg PUBLIC "-//W3C//DTD SVG 1.1//EN" "http://www.w3.org/Graphics/SVG/1.1/DTD/svg11.dtd">
<svg version="1.1" id="Capa_1" xmlns="http://www.w3.org/2000/svg" xmlns:xlink="http://www.w3.org/1999/xlink" x="0px" y="0px"
	 width="11.004px" height="11.008px" viewBox="0 0 11.004 11.008" enable-background="new 0 0 11.004 11.008" xml:space="preserve">
<polygon opacity="0.1" fill="#1D1D1B" enable-background="new    " points="3.557,9.301 1.709,9.301 1.709,7.659 1.858,7.659 
	1.858,9.156 3.545,9.156 "/>
<polygon opacity="0.1" fill="#1D1D1B" enable-background="new    " points="9.283,7.447 9.283,9.294 7.64,9.294 7.64,9.146 
	9.137,9.146 9.137,7.458 "/>
<g>
	<polygon opacity="0.1" fill="#1D1D1B" enable-background="new    " points="7.435,1.697 9.283,1.697 9.283,3.339 9.134,3.339 
		9.134,1.842 7.447,1.842 	"/>
	<polygon opacity="0.1" fill="#1D1D1B" enable-background="new    " points="1.709,3.551 1.709,1.704 3.352,1.704 3.352,1.852 
		1.855,1.852 1.855,3.54 	"/>
</g>
<circle opacity="0.1" fill="#1D1D1B" enable-background="new    " cx="2.869" cy="8.09" r="0.38"/>
<circle opacity="0.1" fill="#1D1D1B" enable-background="new    " cx="5.448" cy="5.465" r="0.38"/>
<circle opacity="0.1" fill="#1D1D1B" enable-background="new    " cx="8.01" cy="2.856" r="0.38"/>
</svg>
