<?xml version="1.0" encoding="utf-8"?>
<!-- Generator: Adobe Illustrator 18.1.1, SVG Export Plug-In . SVG Version: 6.00 Build 0)  -->
<svg version="1.1" id="Capa_1" xmlns="http://www.w3.org/2000/svg" xmlns:xlink="http://www.w3.org/1999/xlink" x="0px" y="0px"
	 width="400px" height="400px" viewBox="0 0 400 400" enable-background="new 0 0 400 400" xml:space="preserve">
<g>
	<g>
		<path fill="#FFFFFF" d="M278.1,108.2H121.9c-7.5,0-13.5,5.9-13.5,13.2v156.9c0,7.3,6.1,13.2,13.5,13.2h156.2
			c7.5,0,13.6-5.9,13.6-13.2V121.4C291.7,114.1,285.6,108.2,278.1,108.2z M162.7,264.4h-27.2v-87.5h27.2L162.7,264.4L162.7,264.4z
			 M149.1,164.9c-8.7,0-15.8-7.1-15.8-15.8c0-8.7,7-15.8,15.8-15.8c8.7,0,15.8,7.1,15.8,15.8C164.9,157.9,157.8,164.9,149.1,164.9z
			 M264.5,264.4h-27.2v-42.5c0-10.1-0.2-23.2-14.1-23.2c-14.2,0-16.3,11-16.3,22.5v43.3h-27.2v-87.5h26.1v12h0.4
			c3.6-6.9,12.5-14.1,25.7-14.1c27.5,0,32.6,18.1,32.6,41.7L264.5,264.4L264.5,264.4z"/>
	</g>
</g>
</svg>
