<?xml version="1.0" encoding="utf-8"?>
<!-- Generator: Adobe Illustrator 16.0.0, SVG Export Plug-In . SVG Version: 6.00 Build 0)  -->
<!DOCTYPE svg PUBLIC "-//W3C//DTD SVG 1.1//EN" "http://www.w3.org/Graphics/SVG/1.1/DTD/svg11.dtd">
<svg version="1.1" id="Capa_1" xmlns="http://www.w3.org/2000/svg" xmlns:xlink="http://www.w3.org/1999/xlink" x="0px" y="0px"
	 width="313.069px" height="47.934px" viewBox="0 0 313.069 47.934" enable-background="new 0 0 313.069 47.934"
	 xml:space="preserve">
<g>
	<path fill="#FFFFFF" d="M0,1.147h4.654v17.127L22.896,1.147h6.129L7.104,21.624L30.73,46.786h-6.075L4.654,25.529v21.257H0V1.147z"
		/>
	<path fill="#FFFFFF" d="M36.176,13.029h4.343v33.757h-4.343V13.029z"/>
	<path fill="#FFFFFF" d="M49.516,13.029h4.345v5.833c1.51-2.151,3.064-3.724,4.658-4.716c2.196-1.323,4.505-1.985,6.928-1.985
		c1.635,0,3.188,0.321,4.658,0.962c1.47,0.64,2.671,1.494,3.603,2.558c0.932,1.066,1.74,2.593,2.426,4.577
		c1.442-2.648,3.248-4.658,5.415-6.035c2.166-1.375,4.499-2.062,6.994-2.062c2.332,0,4.391,0.59,6.175,1.769
		c1.786,1.178,3.11,2.822,3.977,4.933c0.867,2.11,1.3,5.272,1.3,9.494v18.43h-4.436v-18.43c0-3.619-0.258-6.106-0.774-7.464
		c-0.515-1.352-1.396-2.444-2.643-3.271c-1.248-0.825-2.736-1.242-4.469-1.242c-2.104,0-4.026,0.621-5.767,1.862
		c-1.742,1.242-3.014,2.898-3.82,4.964c-0.804,2.069-1.206,5.523-1.206,10.363v13.218h-4.343V29.504
		c0-4.075-0.254-6.842-0.761-8.299c-0.505-1.458-1.39-2.626-2.652-3.505c-1.262-0.879-2.762-1.321-4.498-1.321
		c-2.007,0-3.885,0.606-5.63,1.815c-1.749,1.21-3.043,2.839-3.879,4.885c-0.838,2.049-1.257,5.183-1.257,9.404v14.302h-4.345V13.029
		z"/>
	<path fill="#FFFFFF" d="M137.567,35.586l3.66,1.922c-1.199,2.358-2.588,4.262-4.16,5.712c-1.574,1.445-3.344,2.548-5.311,3.301
		c-1.969,0.755-4.191,1.133-6.678,1.133c-5.506,0-9.812-1.803-12.918-5.412c-3.104-3.611-4.658-7.689-4.658-12.241
		c0-4.283,1.313-8.098,3.943-11.449c3.334-4.259,7.795-6.39,13.385-6.39c5.754,0,10.35,2.182,13.787,6.546
		c2.443,3.082,3.684,6.929,3.725,11.541h-30.373c0.084,3.921,1.336,7.135,3.76,9.644c2.423,2.506,5.414,3.76,8.977,3.76
		c1.719,0,3.391-0.3,5.018-0.898c1.625-0.597,3.006-1.389,4.146-2.379C135.008,39.386,136.243,37.789,137.567,35.586z
		 M137.567,26.496c-0.58-2.316-1.422-4.17-2.533-5.553c-1.107-1.387-2.57-2.504-4.395-3.353c-1.824-0.847-3.738-1.272-5.748-1.272
		c-3.312,0-6.158,1.065-8.541,3.198c-1.74,1.551-3.057,3.876-3.945,6.98H137.567z"/>
	<path fill="#FFFFFF" d="M150.442,13.029h4.344v6.05c1.736-2.316,3.661-4.048,5.77-5.196c2.109-1.148,4.407-1.722,6.889-1.722
		c2.523,0,4.762,0.641,6.717,1.923c1.955,1.283,3.396,3.01,4.328,5.18c0.93,2.171,1.396,5.556,1.396,10.145v17.376h-4.344V30.681
		c0-3.887-0.162-6.48-0.484-7.787c-0.503-2.23-1.467-3.912-2.896-5.039c-1.426-1.128-3.289-1.693-5.584-1.693
		c-2.627,0-4.98,0.872-7.06,2.607c-2.079,1.738-3.449,3.889-4.112,6.452c-0.412,1.675-0.619,4.739-0.619,9.186v12.379h-4.344V13.029
		z"/>
	<path fill="#FFFFFF" d="M222.825,13.029v33.757h-4.283v-5.803c-1.82,2.214-3.862,3.88-6.127,4.995
		c-2.264,1.119-4.742,1.675-7.43,1.675c-4.777,0-8.859-1.731-12.24-5.197c-3.382-3.464-5.071-7.677-5.071-12.642
		c0-4.861,1.706-9.019,5.118-12.472c3.414-3.456,7.519-5.181,12.318-5.181c2.77,0,5.277,0.59,7.521,1.769
		c2.243,1.178,4.216,2.947,5.91,5.306v-6.207H222.825z M205.463,16.35c-2.416,0-4.646,0.594-6.691,1.784
		c-2.047,1.186-3.674,2.854-4.883,5.003c-1.207,2.148-1.812,4.422-1.812,6.818c0,2.375,0.608,4.646,1.829,6.816
		c1.219,2.171,2.854,3.857,4.912,5.068c2.053,1.208,4.258,1.813,6.613,1.813c2.377,0,4.629-0.599,6.758-1.797
		c2.127-1.199,3.766-2.82,4.912-4.866c1.146-2.044,1.719-4.349,1.719-6.912c0-3.904-1.284-7.167-3.857-9.792
		C212.391,17.663,209.227,16.35,205.463,16.35z"/>
	<path fill="#FFFFFF" d="M228.594,38.284l3.879-2.327c2.73,5.026,5.883,7.539,9.461,7.539c1.531,0,2.969-0.356,4.312-1.068
		c1.348-0.716,2.371-1.67,3.072-2.87c0.704-1.2,1.057-2.473,1.057-3.816c0-1.531-0.519-3.03-1.553-4.5
		c-1.428-2.026-4.032-4.467-7.818-7.322c-3.805-2.873-6.172-4.953-7.104-6.235c-1.615-2.15-2.42-4.479-2.42-6.981
		c0-1.987,0.475-3.795,1.426-5.428c0.953-1.635,2.291-2.921,4.018-3.863S240.528,0,242.556,0c2.151,0,4.163,0.532,6.034,1.596
		c1.873,1.068,3.852,3.026,5.941,5.88l-3.725,2.825c-1.715-2.276-3.178-3.775-4.389-4.5c-1.209-0.725-2.528-1.087-3.956-1.087
		c-1.841,0-3.343,0.561-4.515,1.677c-1.168,1.117-1.754,2.493-1.754,4.127c0,0.992,0.209,1.954,0.622,2.883
		c0.415,0.933,1.168,1.947,2.266,3.042c0.599,0.578,2.565,2.1,5.894,4.56c3.951,2.917,6.662,5.513,8.131,7.787
		c1.467,2.277,2.202,4.561,2.202,6.856c0,3.31-1.259,6.187-3.769,8.626c-2.516,2.44-5.57,3.662-9.172,3.662
		c-2.77,0-5.283-0.739-7.535-2.22C232.577,44.237,230.499,41.76,228.594,38.284z"/>
	<path fill="#FFFFFF" d="M267.108,5.427h3.883v11.199h6.152v3.354h-6.152v26.806h-3.883V19.98h-5.293v-3.354h5.293V5.427z"/>
	<path fill="#FFFFFF" d="M313.069,4.983v41.803h-3.826v-5.185c-1.625,1.977-3.451,3.465-5.475,4.463
		c-2.022,0.998-4.237,1.498-6.639,1.498c-4.268,0-7.914-1.547-10.938-4.645c-3.02-3.095-4.529-6.861-4.529-11.293
		c0-4.344,1.521-8.057,4.572-11.144c3.051-3.087,6.717-4.628,11.006-4.628c2.478,0,4.716,0.525,6.721,1.579
		c2.006,1.053,3.764,2.633,5.281,4.74V4.983H313.069z M297.56,19.592c-2.161,0-4.155,0.531-5.982,1.593
		c-1.826,1.061-3.281,2.552-4.36,4.469c-1.08,1.922-1.621,3.953-1.621,6.093c0,2.122,0.545,4.152,1.635,6.092
		c1.09,1.937,2.551,3.447,4.387,4.526c1.838,1.081,3.809,1.618,5.914,1.618c2.123,0,4.135-0.533,6.035-1.602
		c1.904-1.074,3.364-2.521,4.387-4.349c1.027-1.827,1.539-3.885,1.539-6.175c0-3.489-1.15-6.405-3.447-8.75
		C303.747,20.764,300.917,19.592,297.56,19.592z"/>
</g>
</svg>
