<?xml version="1.0" encoding="utf-8"?>
<!-- Generator: Adobe Illustrator 16.0.0, SVG Export Plug-In . SVG Version: 6.00 Build 0)  -->
<!DOCTYPE svg PUBLIC "-//W3C//DTD SVG 1.1//EN" "http://www.w3.org/Graphics/SVG/1.1/DTD/svg11.dtd">
<svg version="1.1" id="Capa_1" xmlns="http://www.w3.org/2000/svg" xmlns:xlink="http://www.w3.org/1999/xlink" x="0px" y="0px"
	 width="172.788px" height="26.455px" viewBox="0 0 172.788 26.455" enable-background="new 0 0 172.788 26.455"
	 xml:space="preserve">
<g>
	<path fill="#6BCEA3" d="M0,0.634h2.569v9.453l10.067-9.453h3.383L3.921,11.936l13.04,13.888h-3.353L2.569,14.091v11.732H0V0.634z"
		/>
	<path fill="#FFBC00" d="M19.966,7.191h2.397v18.632h-2.397V7.191z"/>
	<path fill="#FFBC00" d="M27.329,7.191h2.398v3.221c0.833-1.188,1.691-2.057,2.571-2.604c1.212-0.73,2.486-1.096,3.824-1.096
		c0.902,0,1.76,0.178,2.571,0.53c0.811,0.354,1.474,0.825,1.988,1.412c0.514,0.589,0.96,1.432,1.339,2.526
		c0.796-1.461,1.792-2.57,2.989-3.33c1.195-0.759,2.482-1.139,3.86-1.139c1.287,0,2.423,0.326,3.408,0.977
		c0.985,0.649,1.716,1.557,2.195,2.723c0.479,1.164,0.717,2.909,0.717,5.239v10.172H52.74V15.651c0-1.998-0.143-3.37-0.427-4.12
		c-0.284-0.746-0.771-1.348-1.458-1.805c-0.688-0.456-1.51-0.686-2.466-0.686c-1.161,0-2.222,0.342-3.183,1.027
		c-0.961,0.686-1.664,1.6-2.108,2.739c-0.444,1.143-0.666,3.049-0.666,5.721v7.295h-2.397v-9.538c0-2.25-0.14-3.776-0.42-4.581
		c-0.279-0.805-0.767-1.449-1.464-1.935c-0.697-0.484-1.524-0.729-2.482-0.729c-1.108,0-2.144,0.334-3.107,1.002
		c-0.965,0.668-1.68,1.567-2.141,2.696c-0.462,1.13-0.693,2.86-0.693,5.19v7.894h-2.398V7.191z"/>
	<path fill="#FFBC00" d="M75.925,19.642l2.021,1.061c-0.663,1.302-1.429,2.353-2.297,3.152c-0.869,0.798-1.846,1.406-2.931,1.821
		c-1.086,0.418-2.313,0.626-3.685,0.626c-3.039,0-5.416-0.995-7.129-2.987s-2.571-4.244-2.571-6.756
		c0-2.363,0.725-4.469,2.176-6.318c1.84-2.352,4.303-3.527,7.388-3.527c3.175,0,5.712,1.204,7.609,3.612
		c1.349,1.702,2.034,3.825,2.056,6.37H61.798c0.047,2.164,0.737,3.938,2.075,5.323c1.337,1.383,2.989,2.075,4.955,2.075
		c0.949,0,1.871-0.166,2.769-0.496c0.897-0.33,1.66-0.767,2.289-1.313C74.514,21.738,75.194,20.857,75.925,19.642z M75.925,14.624
		c-0.32-1.278-0.785-2.302-1.397-3.065c-0.612-0.765-1.419-1.381-2.426-1.85c-1.006-0.468-2.063-0.702-3.172-0.702
		c-1.828,0-3.399,0.589-4.714,1.765c-0.96,0.856-1.687,2.141-2.177,3.853H75.925z"/>
	<path fill="#FFBC00" d="M83.031,7.191h2.397v3.34c0.959-1.278,2.021-2.234,3.185-2.868c1.165-0.633,2.433-0.95,3.802-0.95
		c1.393,0,2.628,0.354,3.707,1.062s1.874,1.661,2.389,2.858c0.513,1.199,0.77,3.066,0.77,5.6v9.591h-2.397v-8.889
		c0-2.146-0.09-3.577-0.268-4.298c-0.277-1.231-0.81-2.158-1.599-2.781c-0.787-0.623-1.815-0.935-3.082-0.935
		c-1.451,0-2.75,0.481-3.896,1.438c-1.148,0.96-1.904,2.146-2.27,3.562c-0.228,0.925-0.342,2.616-0.342,5.07v6.832h-2.397V7.191z"/>
	<path fill="#FFBC00" d="M122.98,7.191v18.632h-2.363V22.62c-1.004,1.222-2.132,2.141-3.382,2.757
		c-1.25,0.617-2.617,0.925-4.101,0.925c-2.637,0-4.89-0.956-6.756-2.868s-2.799-4.237-2.799-6.978c0-2.684,0.941-4.978,2.825-6.884
		s4.149-2.859,6.798-2.859c1.529,0,2.913,0.326,4.152,0.977c1.238,0.649,2.326,1.626,3.262,2.928V7.191H122.98z M113.399,9.024
		c-1.333,0-2.565,0.327-3.694,0.984c-1.129,0.654-2.027,1.575-2.694,2.762c-0.667,1.187-1,2.44-1,3.764
		c0,1.311,0.336,2.563,1.009,3.761c0.673,1.199,1.576,2.13,2.711,2.798c1.134,0.667,2.35,1.001,3.65,1.001
		c1.312,0,2.555-0.33,3.729-0.992c1.174-0.662,2.078-1.557,2.711-2.686s0.949-2.4,0.949-3.815c0-2.154-0.709-3.955-2.129-5.404
		C117.223,9.749,115.476,9.024,113.399,9.024z"/>
	<path fill="#6BCEA3" d="M126.166,21.131l2.141-1.285c1.507,2.774,3.247,4.161,5.222,4.161c0.845,0,1.638-0.196,2.38-0.59
		c0.743-0.396,1.308-0.922,1.695-1.584c0.389-0.662,0.583-1.364,0.583-2.106c0-0.844-0.286-1.672-0.856-2.482
		c-0.788-1.119-2.226-2.467-4.315-4.042c-2.101-1.586-3.407-2.733-3.921-3.441c-0.891-1.187-1.335-2.472-1.335-3.853
		c0-1.098,0.262-2.096,0.787-2.996c0.526-0.902,1.265-1.612,2.218-2.133C131.716,0.26,132.751,0,133.871,0
		c1.187,0,2.297,0.295,3.331,0.881c1.034,0.59,2.126,1.67,3.279,3.246l-2.055,1.559c-0.946-1.256-1.754-2.083-2.422-2.483
		c-0.667-0.399-1.396-0.6-2.184-0.6c-1.016,0-1.845,0.31-2.491,0.925c-0.645,0.616-0.968,1.377-0.968,2.278
		c0,0.548,0.115,1.078,0.343,1.591c0.229,0.516,0.645,1.074,1.25,1.679c0.331,0.319,1.416,1.159,3.253,2.518
		c2.18,1.609,3.676,3.042,4.487,4.298c0.81,1.256,1.216,2.517,1.216,3.784c0,1.826-0.694,3.414-2.08,4.761
		c-1.388,1.347-3.074,2.02-5.062,2.02c-1.529,0-2.916-0.407-4.159-1.223C128.363,24.416,127.216,23.049,126.166,21.131z"/>
	<path fill="#FFBC00" d="M147.422,2.996h2.143v6.181h3.396v1.851h-3.396v14.796h-2.143V11.027h-2.921V9.177h2.921V2.996z"/>
	<path fill="#FFBC00" d="M172.788,2.751v23.072h-2.112v-2.862c-0.897,1.092-1.904,1.913-3.021,2.464
		c-1.116,0.551-2.338,0.826-3.664,0.826c-2.355,0-4.368-0.854-6.036-2.563c-1.667-1.707-2.5-3.787-2.5-6.232
		c0-2.397,0.84-4.447,2.524-6.151s3.707-2.554,6.074-2.554c1.367,0,2.603,0.289,3.709,0.871c1.106,0.581,2.077,1.453,2.914,2.615
		V2.751H172.788z M164.229,10.814c-1.192,0-2.293,0.293-3.302,0.879c-1.008,0.585-1.811,1.408-2.406,2.467
		c-0.596,1.061-0.895,2.182-0.895,3.363c0,1.172,0.301,2.291,0.902,3.361c0.601,1.069,1.407,1.902,2.421,2.498
		c1.015,0.598,2.102,0.894,3.264,0.894c1.172,0,2.282-0.294,3.331-0.884c1.051-0.594,1.857-1.392,2.421-2.4
		c0.567-1.009,0.849-2.145,0.849-3.408c0-1.925-0.635-3.535-1.903-4.829C167.643,11.461,166.082,10.814,164.229,10.814z"/>
</g>
</svg>
