<?xml version="1.0" encoding="utf-8"?>
<!-- Generator: Adobe Illustrator 16.0.0, SVG Export Plug-In . SVG Version: 6.00 Build 0)  -->
<!DOCTYPE svg PUBLIC "-//W3C//DTD SVG 1.1//EN" "http://www.w3.org/Graphics/SVG/1.1/DTD/svg11.dtd">
<svg version="1.1" id="Capa_1" xmlns="http://www.w3.org/2000/svg" xmlns:xlink="http://www.w3.org/1999/xlink" x="0px" y="0px"
	 width="14.052px" height="16.646px" viewBox="0 0 14.052 16.646" enable-background="new 0 0 14.052 16.646" xml:space="preserve">
<g>
	<g>
		<path fill="#FFFFFF" d="M13.809,8.428c-0.172-0.748-0.783-1.3-1.519-1.382c-1.743-0.194-3.506-0.195-5.262-0.194
			c-1.756-0.001-3.52,0-5.262,0.194C1.031,7.128,0.42,7.68,0.248,8.428C0.003,9.491,0,10.654,0,11.749s0,2.255,0.245,3.321
			c0.172,0.747,0.783,1.299,1.519,1.381c1.742,0.195,3.506,0.196,5.262,0.195c1.756,0.001,3.519,0,5.261-0.195
			c0.736-0.082,1.347-0.634,1.519-1.381c0.245-1.065,0.246-2.226,0.246-3.321S14.054,9.491,13.809,8.428z M4.009,9.252H2.991v5.404
			H2.047V9.252h-1V8.367h2.961V9.252z M6.574,14.656h-0.85v-0.511c-0.338,0.387-0.659,0.576-0.971,0.576
			c-0.273,0-0.461-0.113-0.547-0.349c-0.047-0.143-0.075-0.367-0.075-0.697V9.97h0.85v3.45c0,0.199,0,0.302,0.008,0.33
			c0.02,0.131,0.084,0.199,0.198,0.199c0.17,0,0.349-0.132,0.537-0.398V9.97h0.85V14.656z M9.801,13.25
			c0,0.433-0.029,0.744-0.086,0.943c-0.114,0.349-0.341,0.528-0.678,0.528c-0.303,0-0.594-0.168-0.878-0.52v0.454h-0.85V8.367h0.85
			v2.054c0.274-0.337,0.565-0.508,0.878-0.508c0.337,0,0.564,0.177,0.678,0.528c0.057,0.188,0.086,0.499,0.086,0.941V13.25z
			 M13.005,12.468h-1.698v0.831c0,0.435,0.142,0.651,0.434,0.651c0.208,0,0.331-0.115,0.38-0.341
			c0.008-0.046,0.019-0.235,0.019-0.575h0.866v0.123c0,0.274-0.01,0.463-0.019,0.548c-0.028,0.188-0.095,0.358-0.198,0.508
			c-0.235,0.34-0.583,0.509-1.026,0.509c-0.445,0-0.783-0.16-1.028-0.481c-0.18-0.234-0.273-0.604-0.273-1.102v-1.641
			c0-0.501,0.083-0.868,0.263-1.104c0.245-0.321,0.583-0.48,1.017-0.48c0.426,0,0.764,0.159,1.002,0.48
			c0.178,0.236,0.263,0.603,0.263,1.104V12.468z"/>
		<path fill="#FFFFFF" d="M11.732,10.676c-0.284,0-0.426,0.219-0.426,0.651v0.435h0.849v-0.435
			C12.156,10.895,12.014,10.676,11.732,10.676z"/>
		<path fill="#FFFFFF" d="M8.581,10.676c-0.139,0-0.281,0.067-0.423,0.207v2.857c0.142,0.142,0.284,0.21,0.423,0.21
			c0.245,0,0.37-0.21,0.37-0.633v-1.999C8.951,10.895,8.826,10.676,8.581,10.676z"/>
		<path fill="#FFFFFF" d="M9.056,6.42c0.313,0,0.638-0.189,0.98-0.583v0.518h0.858V1.619h-0.858v3.62
			c-0.19,0.268-0.37,0.402-0.542,0.402c-0.116,0-0.183-0.066-0.202-0.201c-0.01-0.027-0.01-0.133-0.01-0.333V1.619H8.427v3.745
			c0,0.334,0.029,0.561,0.076,0.705C8.589,6.309,8.779,6.42,9.056,6.42z"/>
		<path fill="#FFFFFF" d="M3.081,3.782v2.573h0.953V3.782L5.178,0H4.215L3.567,2.496L2.891,0H1.889
			C2.09,0.589,2.299,1.181,2.5,1.771C2.805,2.658,2.995,3.325,3.081,3.782z"/>
		<path fill="#FFFFFF" d="M6.454,6.42c0.43,0,0.764-0.161,1.001-0.484C7.635,5.698,7.72,5.325,7.72,4.822V3.163
			c0-0.505-0.085-0.876-0.265-1.116C7.217,1.725,6.883,1.562,6.454,1.562c-0.428,0-0.762,0.163-1,0.486
			c-0.183,0.24-0.269,0.611-0.269,1.116v1.659c0,0.503,0.086,0.876,0.269,1.114C5.692,6.259,6.026,6.42,6.454,6.42z M6.043,2.991
			c0-0.437,0.133-0.657,0.41-0.657c0.276,0,0.409,0.22,0.409,0.657v1.993c0,0.438-0.133,0.657-0.409,0.657
			c-0.277,0-0.41-0.219-0.41-0.657V2.991z"/>
	</g>
</g>
</svg>
